<?xml version="1.0" encoding="iso-8859-1"?>
<!-- Generator: Adobe Illustrator 19.0.0, SVG Export Plug-In . SVG Version: 6.00 Build 0)  -->
<svg version="1.1" id="Capa_1" xmlns="http://www.w3.org/2000/svg" xmlns:xlink="http://www.w3.org/1999/xlink" x="0px" y="0px"
	 viewBox="0 0 490.656 490.656" style="enable-background:new 0 0 490.656 490.656;" xml:space="preserve">
<g>
	<g>
		<path fill="#c70101" d="M487.536,259.12L252.869,24.453c-4.16-4.16-10.923-4.16-15.083,0L3.12,259.12c-4.16,4.16-4.16,10.923,0,15.083
			c4.16,4.16,10.923,4.16,15.083,0L245.317,47.067l227.115,227.136c2.091,2.069,4.821,3.115,7.552,3.115s5.461-1.045,7.552-3.115
			C491.696,270.043,491.696,263.28,487.536,259.12z"/>
	</g>
</g>
<g>
	<g>
		<path fill="#c70101" d="M487.536,451.12L252.869,216.453c-4.16-4.16-10.923-4.16-15.083,0L3.12,451.12c-4.16,4.16-4.16,10.923,0,15.083
			c4.16,4.16,10.923,4.16,15.083,0l227.115-227.136l227.115,227.136c2.091,2.069,4.821,3.115,7.552,3.115s5.461-1.045,7.552-3.115
			C491.696,462.043,491.696,455.28,487.536,451.12z"/>
	</g>
</g>
<g>
</g>
<g>
</g>
<g>
</g>
<g>
</g>
<g>
</g>
<g>
</g>
<g>
</g>
<g>
</g>
<g>
</g>
<g>
</g>
<g>
</g>
<g>
</g>
<g>
</g>
<g>
</g>
<g>
</g>
</svg>
